Coordinates
version=1
nRows=10
nColumns=40
inDegrees=yes

Units are S.I. units (second, meters, Newtons, ...)
Angles are in degrees.

endheader
time	pelvis_tilt	pelvis_list	pelvis_rotation	pelvis_tx	pelvis_ty	pelvis_tz	hip_flexion_r	hip_adduction_r	hip_rotation_r	knee_angle_r	knee_angle_r_beta	ankle_angle_r	subtalar_angle_r	mtp_angle_r	hip_flexion_l	hip_adduction_l	hip_rotation_l	knee_angle_l	knee_angle_l_beta	ankle_angle_l	subtalar_angle_l	mtp_angle_l	lumbar_extension	lumbar_bending	lumbar_rotation	arm_flex_r	arm_add_r	arm_rot_r	elbow_flex_r	pro_sup_r	wrist_flex_r	wrist_dev_r	arm_flex_l	arm_add_l	arm_rot_l	elbow_flex_l	pro_sup_l	wrist_flex_l	wrist_dev_l
      0.00000000	     -2.91082121	     13.98903544	     77.04260873	      0.59242286	      0.96945023	     -1.06204025	     16.33067191	     -0.89892970	      6.64536735	     11.70651891	      0.20431730	      7.94878781	      0.00000000	      0.00000000	    -29.85768842	     10.84822425	    -15.58503549	      8.11666483	      0.14166253	     18.76449299	      0.00000000	      0.00000000	    -30.12665105	     -6.75067008	      2.72853537	      6.33611203	     -9.93578753	      6.96960762	    143.23851501	     88.01438406	      0.00000000	      0.00000000	      3.28534969	    -11.88137987	      1.64270826	    142.25097092	     85.66195390	      0.00000000	      0.00000000
      0.01000000	     -2.84508578	     14.01461167	     77.13913361	      0.59379816	      0.96805482	     -1.06361497	     16.40613916	     -0.77233333	      6.16444523	     13.04850136	      0.22773931	      7.84140618	      0.00000000	      0.00000000	    -29.86425248	     10.51194330	    -15.63071648	      9.69889868	      0.16927772	     18.65790218	      0.00000000	      0.00000000	    -29.94413271	     -6.60839594	      2.81491028	      6.16300793	     -9.87003181	      6.82415338	    143.24210975	     88.01689355	      0.00000000	      0.00000000	      2.88789441	    -11.53912051	      1.64354528	    142.13951002	     85.67126755	      0.00000000	      0.00000000
      0.02000000	     -2.67989966	     14.10831298	     77.23277196	      0.59568532	      0.96660591	     -1.06553699	     16.42998953	     -0.52571326	      5.86222310	     14.68114362	      0.25623429	      7.22176782	      0.00000000	      0.00000000	    -29.86518965	     10.00013899	    -15.55319757	     11.81818486	      0.20626624	     18.33663035	      0.00000000	      0.00000000	    -29.77741502	     -6.36905024	      2.95317934	      5.97640176	     -9.81653053	      6.66182532	    143.26664971	     88.00922837	      0.00000000	      0.00000000	      2.49821360	    -11.06883996	      1.53970038	    141.99667166	     85.71644698	      0.00000000	      0.00000000
      0.03000000	     -2.46422657	     14.30882760	     77.25022523	      0.59758769	      0.96590232	     -1.06701462	     16.36448220	     -0.22943363	      5.99185949	     16.09879751	      0.28097702	      6.24785366	      0.00000000	      0.00000000	    -29.86274378	      9.50691023	    -15.37025364	     13.86960749	      0.24207032	     17.64597503	      0.00000000	      0.00000000	    -29.80308391	     -6.14751722	      3.12602626	      5.86825099	     -9.87245855	      6.57032881	    143.29854600	     87.98364846	      0.00000000	      0.00000000	      2.21438002	    -10.71990834	      1.48781211	    141.88891972	     85.75899273	      0.00000000	      0.00000000
      0.04000000	     -2.12891179	     14.62980064	     77.21147487	      0.59978540	      0.96562657	     -1.06856657	     16.20341424	      0.17704074	      6.37877672	     17.76081979	      0.30998478	      5.41495130	      0.00000000	      0.00000000	    -29.85962388	      8.90340354	    -15.24808226	     16.23424197	      0.28334097	     16.80431943	      0.00000000	      0.00000000	    -29.95514778	     -5.86330456	      3.38357234	      5.84119824	     -9.89925394	      6.33368380	    143.33215445	     87.97309044	      0.00000000	      0.00000000	      1.88969789	    -10.30890695	      1.52859346	    141.79273625	     85.76255393	      0.00000000	      0.00000000
      0.05000000	     -1.57112216	     15.05347099	     77.17081055	      0.60206114	      0.96581810	     -1.07034676	     15.93176971	      0.76891632	      6.78885911	     19.73263938	      0.34439953	      5.25917166	      0.00000000	      0.00000000	    -29.85291345	      8.05978006	    -15.14350052	     18.86222600	      0.32920795	     16.05476405	      0.00000000	      0.00000000	    -30.22263755	     -5.37772096	      3.70186314	      5.86035655	     -9.96207164	      5.96922626	    143.39982197	     87.97809144	      0.00000000	      0.00000000	      1.60948903	     -9.84082535	      1.45840278	    141.69137610	     85.74906910	      0.00000000	      0.00000000
      0.06000000	     -0.92168607	     15.61458261	     77.18404416	      0.60406232	      0.96662415	     -1.07246909	     15.45410842	      1.37255597	      7.17257125	     21.84100240	      0.38119740	      5.72691984	      0.00000000	      0.00000000	    -29.84567478	      7.11479741	    -15.02995733	     21.72424105	      0.37915953	     14.77406384	      0.00000000	      0.00000000	    -30.61864741	     -4.77806976	      3.98425143	      5.81644453	    -10.13832672	      5.69899278	    143.50919835	     87.97095717	      0.00000000	      0.00000000	      1.35470096	     -9.37738554	      1.32034714	    141.60957148	     85.73741277	      0.00000000	      0.00000000
      0.07000000	     -0.30152067	     16.31363574	     77.13517259	      0.60588981	      0.96807590	     -1.07456128	     14.65475278	      1.92788143	      7.83401533	     23.71602391	      0.41392270	      5.96571470	      0.00000000	      0.00000000	    -29.83285674	      6.32061232	    -14.78689228	     24.71377018	      0.43133666	     13.10319693	      0.00000000	      0.00000000	    -31.15932671	     -4.24504150	      4.28546932	      5.87199064	    -10.40904685	      5.40415502	    143.61276417	     87.95447629	      0.00000000	      0.00000000	      1.12546651	     -8.80725374	      1.20720478	    141.49216042	     85.74227679	      0.00000000	      0.00000000
      0.08000000	      0.63275213	     17.15857195	     77.29952352	      0.60759967	      0.97034518	     -1.07681918	     13.14830649	      2.61086229	      7.76671876	     24.76433851	      0.43221924	      6.50231577	      0.00000000	      0.00000000	    -29.81826484	      4.89192100	    -15.08990334	     27.99869862	      0.48866948	     10.46834642	      0.00000000	      0.00000000	    -31.94721823	     -3.34806876	      4.46298691	      5.94343756	    -10.63332075	      5.00756203	    143.77098686	     87.97196854	      0.00000000	      0.00000000	      0.81468113	     -8.25125565	      1.06240611	    141.52709351	     85.79330795	      0.00000000	      0.00000000
      0.09000000	      2.18144021	     18.07748891	     77.73613667	      0.60871052	      0.97367682	     -1.07883594	     10.71564677	      3.74084139	      7.10946563	     24.45345586	      0.42679332	      6.41261804	      0.00000000	      0.00000000	    -29.80945794	      2.75673415	    -14.62688874	     31.49593746	      0.54970781	      8.10388288	      0.00000000	      0.00000000	    -33.00143001	     -1.67010634	      4.53334514	      6.10831915	    -11.02182898	      4.83615901	    143.88054136	     87.97001120	      0.00000000	      0.00000000	      0.59527546	     -7.58006419	      0.89577422	    141.44806255	     85.94442850	      0.00000000	      0.00000000
